#N canvas 0 23 1440 855 16;
#X obj 3 4 TIMER;
#X obj 6 433 hsl 1220 50 0 60000 0 0 empty empty empty -2 -8 0 16 #fcfcfc
#fc0400 #000000 0 1;
#X obj 196 500 bng 80 30000 50 0 empty empty empty 17 7 0 10 #fcfcfc
#00fc04 #000000;
#X obj 520 497 bng 80 30000 50 0 empty empty empty 17 7 0 10 #fcfcfc
#00fc04 #000000;
#X obj 820 495 bng 80 30000 50 0 empty empty empty 17 7 0 10 #fcfcfc
#00fc04 #000000;
#X obj 1147 674 sel 360;
#X obj 1147 497 bng 80 30000 50 0 empty empty empty 17 7 0 10 #fcfcfc
#00fc04 #000000;
#X obj 1420 632 sel 480;
#X obj 132 513 bng 50 250 50 0 empty empty empty 17 7 0 10 #fcfcfc
#fc0400 #000000;
#X obj 456 509 bng 50 250 50 0 empty empty empty 17 7 0 10 #fcfcfc
#fc0400 #000000;
#X obj 756 503 bng 50 250 50 0 empty empty empty 17 7 0 10 #fcfcfc
#fc0400 #000000;
#X obj 950 651 moses 350;
#X obj 1037 682 moses 360;
#X obj 1082 507 bng 50 250 50 0 empty empty empty 17 7 0 10 #fcfcfc
#fc0400 #000000;
#X text 622 519 guitar: 6'00;
#X obj 1190 636 moses 470;
#X obj 1277 667 moses 480;
#X text 950 521 rotor: 8'00;
#X obj 509 810 array define stereo-sx;
#X obj 509 848 array define stereo-dx;
#X obj 314 799 soundfiler;
#X floatatom 314 857 0 0 0 0 - - - 0;
#X obj 314 828 / 44100;
#X msg 314 764 read -resize STEREO_VERSION.wav stereo-sx stereo-dx
;
#X obj 1151 829 tabplay~ stereo-sx;
#X obj 1340 830 tabplay~ stereo-dx;
#X obj 1257 779 bng 15 250 50 0 empty empty empty 17 7 0 10 #fcfcfc
#000000 #000000;
#X obj 1302 862 dac~;
#X msg 1382 789 stop;
#X text 8 526 metal: 1'45;
#X obj 260 630 sel 105;
#X obj 22 640 moses 95;
#X obj 99 671 moses 105;
#X text 293 524 symphonia: 3'15;
#X obj 518 676 moses 195;
#X obj 644 667 sel 195;
#X obj 416 634 moses 185;
#X obj 1178 736 * 44100;
#X obj 1151 781 f;
#X obj 314 726 loadbang;
#X obj 1322 459 tgl 50 0 empty global_control empty 17 7 0 10 #fcfcfc
#000000 #000000 0 1;
#X obj 1322 514 sel 1 0;
#X obj 1322 552 bng 15 250 50 0 empty empty empty 17 7 0 10 #fcfcfc
#000000 #000000;
#X msg 1355 552 stop;
#X connect 0 0 1 0;
#X connect 0 0 5 0;
#X connect 0 0 7 0;
#X connect 0 0 11 0;
#X connect 0 0 30 0;
#X connect 0 0 31 0;
#X connect 0 0 35 0;
#X connect 0 0 36 0;
#X connect 0 0 37 0;
#X connect 5 0 4 0;
#X connect 7 0 6 0;
#X connect 11 1 12 0;
#X connect 12 0 10 0;
#X connect 15 1 16 0;
#X connect 16 0 13 0;
#X connect 20 0 22 0;
#X connect 22 0 21 0;
#X connect 23 0 20 0;
#X connect 24 0 27 0;
#X connect 25 0 27 1;
#X connect 26 0 24 0;
#X connect 26 0 25 0;
#X connect 28 0 24 0;
#X connect 28 0 25 0;
#X connect 30 0 2 0;
#X connect 31 1 32 0;
#X connect 32 0 8 0;
#X connect 34 0 9 0;
#X connect 35 0 3 0;
#X connect 36 1 34 0;
#X connect 37 0 38 1;
#X connect 38 0 24 0;
#X connect 38 0 25 0;
#X connect 39 0 23 0;
#X connect 40 0 41 0;
#X connect 41 0 42 0;
#X connect 41 1 43 0;
#X connect 42 0 38 0;
#X connect 43 0 24 0;
#X connect 43 0 25 0;
#X coords 0 -1 1 1 1230 600 1 0 0;
