#N canvas 1385 74 470 426 12;
#X obj 17 353 netsend -b -u;
#X msg 56 311 disconnect;
#X obj 17 44 oscparse;
#X obj 17 69 list trim;
#X obj 17 169 t f b;
#X obj 49 222 f 0;
#X obj 17 19 netreceive -b -u 12000;
#X obj 257 174 print;
#X obj 227 79 oscparse;
#X obj 227 104 list trim;
#X obj 17 257 oscformat rotor awake;
#X obj 227 54 netreceive -b -u 8000;
#X msg 35 286 connect localhost 10000;
#X obj 17 94 route rotor;
#X obj 17 119 route awake;
#X obj 49 197 delay 6000;
#X connect 1 0 0 0;
#X connect 2 0 3 0;
#X connect 3 0 7 0;
#X connect 3 0 13 0;
#X connect 4 0 10 0;
#X connect 4 1 15 0;
#X connect 5 0 10 0;
#X connect 6 0 2 0;
#X connect 8 0 9 0;
#X connect 9 0 7 0;
#X connect 10 0 0 0;
#X connect 11 0 8 0;
#X connect 12 0 0 0;
#X connect 13 0 14 0;
#X connect 14 0 4 0;
#X connect 15 0 5 0;
