#N canvas 0 58 1920 1022 36;
#X obj 1040 783 metro 1000;
#X obj 1045 963 f;
#X obj 1158 968 + 1;
#X obj 1213 1066 % 60;
#X obj 433 16 tgl 50 0 empty empty PLAY_(Space) 52 25 0 16 -262144
-1 -1 1 1;
#X floatatom 851 905 5 0 0 0 - - -;
#X floatatom 898 980 5 0 0 0 - - -;
#X obj 1045 1051 / 60;
#X obj 1045 1120 int;
#X obj 626 15 bng 50 250 50 0 empty empty Reset_(R) 52 25 0 20 -262144
-1 -1;
#X obj 1231 855 f 0;
#X obj 335 874 keyup;
#X floatatom 335 941 5 0 0 0 - - -;
#X obj 650 1123 bng 15 250 50 0 empty empty empty 17 7 0 10 -262144
-1 -1;
#X obj 543 871 keyup;
#X floatatom 543 939 5 0 0 0 - - -;
#X obj 543 1005 sel 114;
#X obj 335 1008 sel 32;
#X obj 11 92 nbx 2 300 -1e+37 1e+37 0 0 empty empty empty 0 -8 0 256
-262144 -1 -1 0 256;
#X obj 627 92 nbx 2 300 -1e+37 1e+37 0 0 empty empty empty 0 -8 0 256
-262144 -1 -1 30 256;
#X text 604 235 :;
#X obj 771 1099 outlet;
#X obj 1384 1026 outlet play;
#X connect 0 0 1 0;
#X connect 1 0 2 0;
#X connect 1 0 3 0;
#X connect 1 0 7 0;
#X connect 1 0 21 0;
#X connect 2 0 1 1;
#X connect 3 0 5 0;
#X connect 3 0 19 0;
#X connect 4 0 0 0;
#X connect 7 0 8 0;
#X connect 8 0 6 0;
#X connect 8 0 18 0;
#X connect 9 0 10 0;
#X connect 10 0 1 1;
#X connect 10 0 8 0;
#X connect 10 0 3 0;
#X connect 11 0 12 0;
#X connect 12 0 17 0;
#X connect 14 0 15 0;
#X connect 15 0 16 0;
#X connect 16 0 9 0;
#X connect 17 0 13 0;
#X connect 17 0 4 0;
#X connect 17 0 22 0;
#X coords 0 -1 1 1 1220 400 1 5 5;
